<svg version="1.1" id="Layer_1" xmlns="http://www.w3.org/2000/svg" xmlns:xlink="http://www.w3.org/1999/xlink" x="0px" y="0px"
	 width="100%" viewBox="0 0 598 608" enable-background="new 0 0 598 608" xml:space="preserve">
<path fill="#FFFFFF" opacity="1.000000" stroke="none" 
	d="
M398.000000,609.000000 
	C265.333344,609.000000 133.166672,609.000000 1.000000,609.000000 
	C1.000000,406.333344 1.000000,203.666672 1.000000,1.000000 
	C200.333328,1.000000 399.666656,1.000000 599.000000,1.000000 
	C599.000000,203.666672 599.000000,406.333344 599.000000,609.000000 
	C532.166687,609.000000 465.333344,609.000000 398.000000,609.000000 
M168.601471,495.105103 
	C170.430023,495.000061 172.278290,495.031067 174.084198,494.769592 
	C200.686630,490.918488 224.405075,480.131012 246.275467,464.825073 
	C271.791443,446.967743 294.775574,426.306702 315.196930,402.807800 
	C317.221191,400.478455 318.972260,400.151703 322.024261,400.854736 
	C333.498718,403.498047 344.997192,406.619202 356.661591,407.738556 
	C383.538452,410.317841 407.847504,402.092682 430.653717,388.237030 
	C459.508057,370.707062 477.436676,344.506073 490.946198,314.162537 
	C485.100433,309.995728 479.452393,305.969788 473.570679,301.777313 
	C471.642670,305.642975 470.307129,309.318085 468.160553,312.434570 
	C462.141083,321.173920 456.761047,330.647156 449.381470,338.101044 
	C427.552002,360.150360 400.550476,371.831268 369.598816,373.637543 
	C360.354736,374.177032 351.054626,372.684692 342.329285,367.647949 
	C343.589142,365.537018 344.692444,363.708282 345.776794,361.868378 
	C352.286194,350.823364 359.106598,339.947540 365.234955,328.694855 
	C379.997803,301.587646 393.103027,273.737885 400.433044,243.556519 
	C406.208588,219.775574 408.197449,195.887833 400.086487,172.211884 
	C392.803925,150.954117 379.764069,135.378357 356.747009,130.119507 
	C342.284241,126.815109 327.698425,126.011345 313.074463,128.240524 
	C300.009613,130.232040 287.284546,133.682617 276.269958,141.426315 
	C256.559906,155.283295 242.915695,173.860214 235.243958,196.588974 
	C231.609650,207.356186 229.209915,218.540100 226.318222,229.284882 
	C210.530518,219.836685 193.781403,218.443832 176.535614,225.804916 
	C154.505524,235.208069 139.136581,252.370895 126.194397,271.574677 
	C103.826004,304.765167 89.425484,341.249237 84.439445,381.151215 
	C81.341827,405.940704 82.750336,430.250610 92.132362,453.838257 
	C100.073090,473.802307 112.626907,488.820465 134.490601,492.953003 
	C145.303925,494.996857 156.599594,494.488800 168.601471,495.105103 
z"/>
<path fill="#478BF2" opacity="1.000000" stroke="none" 
	d="
M168.139252,495.120239 
	C156.599594,494.488800 145.303925,494.996857 134.490601,492.953003 
	C112.626907,488.820465 100.073090,473.802307 92.132362,453.838257 
	C82.750336,430.250610 81.341827,405.940704 84.439445,381.151215 
	C89.425484,341.249237 103.826004,304.765167 126.194397,271.574677 
	C139.136581,252.370895 154.505524,235.208069 176.535614,225.804916 
	C193.781403,218.443832 210.530518,219.836685 226.318222,229.284882 
	C229.209915,218.540100 231.609650,207.356186 235.243958,196.588974 
	C242.915695,173.860214 256.559906,155.283295 276.269958,141.426315 
	C287.284546,133.682617 300.009613,130.232040 313.074463,128.240524 
	C327.698425,126.011345 342.284241,126.815109 356.747009,130.119507 
	C379.764069,135.378357 392.803925,150.954117 400.086487,172.211884 
	C408.197449,195.887833 406.208588,219.775574 400.433044,243.556519 
	C393.103027,273.737885 379.997803,301.587646 365.234955,328.694855 
	C359.106598,339.947540 352.286194,350.823364 345.776794,361.868378 
	C344.692444,363.708282 343.589142,365.537018 342.329285,367.647949 
	C351.054626,372.684692 360.354736,374.177032 369.598816,373.637543 
	C400.550476,371.831268 427.552002,360.150360 449.381470,338.101044 
	C456.761047,330.647156 462.141083,321.173920 468.160553,312.434570 
	C470.307129,309.318085 471.642670,305.642975 473.570679,301.777313 
	C479.452393,305.969788 485.100433,309.995728 490.946198,314.162537 
	C477.436676,344.506073 459.508057,370.707062 430.653717,388.237030 
	C407.847504,402.092682 383.538452,410.317841 356.661591,407.738556 
	C344.997192,406.619202 333.498718,403.498047 322.024261,400.854736 
	C318.972260,400.151703 317.221191,400.478455 315.196930,402.807800 
	C294.775574,426.306702 271.791443,446.967743 246.275467,464.825073 
	C224.405075,480.131012 200.686630,490.918488 174.084198,494.769592 
	C172.278290,495.031067 170.430023,495.000061 168.139252,495.120239 
M253.493958,411.003448 
	C263.844971,400.293488 274.195984,389.583527 284.946625,378.460114 
	C239.526276,339.374756 225.411743,288.662384 227.220871,231.488602 
	C226.219467,232.145737 225.902054,232.263397 225.718872,232.489731 
	C224.880676,233.525375 224.046661,234.567505 223.270813,235.650070 
	C197.710373,271.316315 178.650040,310.141541 167.127945,352.516724 
	C161.381699,373.649933 157.888306,395.080963 160.996674,417.144226 
	C163.208008,432.840210 171.779297,443.615753 184.474380,445.976532 
	C193.462051,447.647949 201.996094,446.144531 210.227112,442.408356 
	C226.566177,434.991852 239.628326,423.040131 253.493958,411.003448 
M290.171692,207.755157 
	C285.424286,219.408066 282.754303,231.526154 281.986450,244.078781 
	C280.489319,268.553284 285.404510,292.135529 292.481232,315.294891 
	C296.060486,327.008453 301.260345,338.138580 309.521912,347.679932 
	C327.864258,320.381195 343.432159,291.915375 354.418274,261.197052 
	C362.781708,237.811966 367.406769,213.745178 364.000153,188.648056 
	C361.539886,170.523239 350.205872,160.518066 333.839752,163.120697 
	C325.544220,164.439896 318.704803,168.983322 312.744354,174.787216 
	C303.204620,184.076370 295.770691,194.830490 290.171692,207.755157 
z"/>
<path fill="#FEFEFF" opacity="1.000000" stroke="none" 
	d="
M253.243073,411.254761 
	C239.628326,423.040131 226.566177,434.991852 210.227112,442.408356 
	C201.996094,446.144531 193.462051,447.647949 184.474380,445.976532 
	C171.779297,443.615753 163.208008,432.840210 160.996674,417.144226 
	C157.888306,395.080963 161.381699,373.649933 167.127945,352.516724 
	C178.650040,310.141541 197.710373,271.316315 223.270813,235.650070 
	C224.046661,234.567505 224.880676,233.525375 225.718872,232.489731 
	C225.902054,232.263397 226.219467,232.145737 227.220871,231.488602 
	C225.411743,288.662384 239.526276,339.374756 284.946625,378.460114 
	C274.195984,389.583527 263.844971,400.293488 253.243073,411.254761 
z"/>
<path fill="#FEFEFF" opacity="1.000000" stroke="none" 
	d="
M290.344177,207.416321 
	C295.770691,194.830490 303.204620,184.076370 312.744354,174.787216 
	C318.704803,168.983322 325.544220,164.439896 333.839752,163.120697 
	C350.205872,160.518066 361.539886,170.523239 364.000153,188.648056 
	C367.406769,213.745178 362.781708,237.811966 354.418274,261.197052 
	C343.432159,291.915375 327.864258,320.381195 309.521912,347.679932 
	C301.260345,338.138580 296.060486,327.008453 292.481232,315.294891 
	C285.404510,292.135529 280.489319,268.553284 281.986450,244.078781 
	C282.754303,231.526154 285.424286,219.408066 290.344177,207.416321 
z"/>
</svg>